HIERARCHY
ROOT hip
{
	OFFSET 0.000000 0.000000 0.000000
	CHANNELS 6 Xposition Yposition Zposition Zrotation Yrotation Xrotation 
	JOINT lhipjoint
	{
		OFFSET 0.000000 0.000000 0.000000
		CHANNELS 3 Zrotation Yrotation Xrotation
		JOINT lfemur
		{
			OFFSET 1.363060 -1.794630 0.839290
			CHANNELS 3 Zrotation Yrotation Xrotation
			JOINT ltibia
			{
				OFFSET 2.448110 -6.726130 0.000000
				CHANNELS 3 Zrotation Yrotation Xrotation
				JOINT lfoot
				{
					OFFSET 2.562200 -7.039590 0.000000
					CHANNELS 3 Zrotation Yrotation Xrotation
					JOINT ltoes
					{
						OFFSET 0.157640 -0.433110 2.322550
						CHANNELS 3 Zrotation Yrotation Xrotation
						End Site
						{
							OFFSET 0.000000 0.000000 0.000000
						}
					}
				}
			}
		}
	}
	JOINT rhipjoint
	{
		OFFSET 0.000000 0.000000 0.000000
		CHANNELS 3 Zrotation Yrotation Xrotation
		JOINT rfemur
		{
			OFFSET -1.305520 -1.794630 0.839290
			CHANNELS 3 Zrotation Yrotation Xrotation
			JOINT rtibia
			{
				OFFSET -2.542530 -6.985550 0.000000
				CHANNELS 3 Zrotation Yrotation Xrotation
				JOINT rfoot
				{
					OFFSET -2.568260 -7.056230 0.000000
					CHANNELS 3 Zrotation Yrotation Xrotation
					JOINT rtoes
					{
						OFFSET -0.164730 -0.452590 2.363150
						CHANNELS 3 Zrotation Yrotation Xrotation
						End Site
						{
							OFFSET 0.000000 0.000000 0.000000
						}
					}
				}
			}
		}
	}
	JOINT lowerback
	{
		OFFSET 0.000000 0.000000 0.000000
		CHANNELS 3 Zrotation Yrotation Xrotation
		JOINT upperback
		{
			OFFSET 0.028270 2.035590 -0.193380
			CHANNELS 3 Zrotation Yrotation Xrotation
			JOINT thorax
			{
				OFFSET 0.056720 2.048850 -0.042750
				CHANNELS 3 Zrotation Yrotation Xrotation
				JOINT lowerneck
				{
					OFFSET 0.000000 0.000000 0.000000
					CHANNELS 3 Zrotation Yrotation Xrotation
					JOINT upperneck
					{
						OFFSET -0.054170 1.746240 0.172020
						CHANNELS 3 Zrotation Yrotation Xrotation
						JOINT head
						{
							OFFSET 0.104070 1.761360 -0.123970
							CHANNELS 3 Zrotation Yrotation Xrotation
							End Site
							{
								OFFSET 0.000000 0.000000 0.000000
							}
						}
					}
				}
				JOINT lclavicle
				{
					OFFSET 0.000000 0.000000 0.000000
					CHANNELS 3 Zrotation Yrotation Xrotation
					JOINT lhumerus
					{
						OFFSET 3.362410 1.200890 -0.311210
						CHANNELS 3 Zrotation Yrotation Xrotation
						JOINT lradius
						{
							OFFSET 4.983000 -0.000000 -0.000000
							CHANNELS 3 Zrotation Yrotation Xrotation
							JOINT lwrist
							{
								OFFSET 3.483560 -0.000000 -0.000000
								CHANNELS 3 Zrotation Yrotation Xrotation
								JOINT lhand
								{
									OFFSET 0.000000 0.000000 0.000000
									CHANNELS 3 Zrotation Yrotation Xrotation
									JOINT lfingers
									{
										OFFSET 0.715260 -0.000000 -0.000000
										CHANNELS 3 Zrotation Yrotation Xrotation
										End Site
										{
											OFFSET 0.000000 0.000000 0.000000
										}
									}
								}
								JOINT lthumb
								{
									OFFSET 0.000000 0.000000 0.000000
									CHANNELS 3 Zrotation Yrotation Xrotation
									End Site
									{
										OFFSET 0.000000 0.000000 0.000000
									}
								}
							}
						}
					}
				}
				JOINT rclavicle
				{
					OFFSET 0.000000 0.000000 0.000000
					CHANNELS 3 Zrotation Yrotation Xrotation
					JOINT rhumerus
					{
						OFFSET -3.136600 1.374050 -0.404650
						CHANNELS 3 Zrotation Yrotation Xrotation
						JOINT rradius
						{
							OFFSET -5.241900 -0.000000 -0.000000
							CHANNELS 3 Zrotation Yrotation Xrotation
							JOINT rwrist
							{
								OFFSET -3.444170 -0.000000 -0.000000
								CHANNELS 3 Zrotation Yrotation Xrotation
								JOINT rhand
								{
									OFFSET 0.000000 0.000000 0.000000
									CHANNELS 3 Zrotation Yrotation Xrotation
									JOINT rfingers
									{
										OFFSET -0.622530 -0.000000 -0.000000
										CHANNELS 3 Zrotation Yrotation Xrotation
										End Site
										{
											OFFSET 0.000000 0.000000 0.000000
										}
									}
								}
								JOINT rthumb
								{
									OFFSET 0.000000 0.000000 0.000000
									CHANNELS 3 Zrotation Yrotation Xrotation
									End Site
									{
										OFFSET 0.000000 0.000000 0.000000
									}
								}
							}
						}
					}
				}
			}
		}
	}
}
MOTION
Frames: 12
Frame Time: 0.008333
0.018859 2.021486 0.185001 176.554225 37.902969 114.726326 0.302306 1.745912 -0.308649 17.687031 12.065274 -64.498392 14.837145 21.283972 75.327430 2.352522 1.824286 28.566890 1.263300 -7.124600 -20.085000 -2.006572 -0.967187 -1.008831 38.199284 30.614556 -65.307970 -20.930281 -19.313829 91.257048 0.741542 -15.164885 21.209613 -0.005800 0.490500 -1.347800 -6.901287 -18.374452 62.799760 3.995925 -12.778109 1.726183 18.793768 -4.118206 8.347129 3.736609 6.874968 5.657142 -12.188976 10.611911 5.276099 -4.131100 5.558900 0.601800 -2.307159 2.307873 -1.188628 -21.161280 -0.123726 91.569524 9.409008 -23.158823 -1.438423 0.072711 -1.486986 84.315315 0.641807 10.518799 -0.155300 -7.125000 0.000000 0.000000 -23.985400 39.373300 3.568400 5.503138 -0.564792 2.885809 42.121216 20.532071 -51.330212 -155.812925 32.209295 -114.036360 0.116189 -0.416842 -146.071456 -17.739399 30.815490 -9.064600 7.125000 0.000000 0.000000 7.921900 1.524900 8.208000 
0.017629 2.028763 0.167270 176.601048 37.966787 114.922890 0.278897 1.735892 -0.299237 17.741157 11.921946 -64.702376 14.864299 21.274656 75.445000 2.416841 1.547148 28.851237 1.288400 -7.192300 -20.286300 -2.030467 -0.981915 -0.988693 38.154844 30.537293 -65.574431 -20.986019 -19.326639 91.400512 0.774199 -15.337725 21.175945 -0.005900 0.496300 -1.363800 -6.347535 -18.410730 62.660705 4.128838 -12.337754 1.716156 18.991051 -3.905073 8.223668 3.564338 6.667520 5.624869 -12.372502 10.337642 5.318500 -4.210800 5.427500 0.600100 -2.181384 2.483438 -0.833169 -24.335226 2.852681 76.028636 7.779368 -23.586814 -1.507205 -0.278054 -1.188057 100.149033 3.102444 8.538763 0.282300 -7.125000 0.000000 0.000000 -21.160800 37.756000 3.991100 5.521779 -0.722838 2.727387 42.915850 21.786474 -52.544231 -156.890125 30.672091 -114.675093 0.059917 -0.346729 -148.063848 -14.843757 34.607379 -8.372500 7.125000 0.000000 0.000000 9.914800 4.813900 10.870100 
0.016809 2.036348 0.150051 176.642624 38.021563 115.094927 0.255667 1.725927 -0.292996 17.794789 11.746575 -64.863789 14.891828 21.263822 75.557535 2.476395 1.312268 29.130205 1.298700 -7.219900 -20.368400 -2.051640 -0.993731 -0.972563 38.130148 30.404405 -65.810657 -21.033885 -19.339810 91.524709 0.790102 -15.465085 21.204127 -0.006100 0.504100 -1.385200 -5.790674 -18.437363 62.491874 4.260750 -11.884503 1.726984 19.165443 -3.686546 8.149711 3.387232 6.437428 5.567620 -12.582580 10.029856 5.336878 -4.304900 5.281000 0.590500 -1.995514 2.632607 -0.455688 -27.970092 5.432361 61.785985 6.465728 -23.898139 -1.594297 -0.530077 -0.856475 114.026781 5.782369 7.259300 0.618400 -7.125000 0.000000 0.000000 -18.488600 36.821200 3.883800 5.524267 -0.862938 2.572570 43.686094 23.057242 -53.528430 -157.888148 29.185482 -115.224338 0.015435 -0.269751 -149.855608 -11.080423 37.819499 -6.722700 7.125000 0.000000 0.000000 12.236700 7.375800 14.010400 
0.016809 2.042805 0.131807 176.679889 38.063391 115.270386 0.233024 1.715903 -0.291434 17.844902 11.535573 -65.028167 14.919079 21.250912 75.670532 2.537926 1.065619 29.418934 1.318800 -7.273500 -20.528200 -2.070371 -1.002685 -0.960659 38.085300 30.275278 -66.044724 -21.079428 -19.352365 91.638852 0.809416 -15.614843 21.233886 -0.006300 0.511300 -1.405100 -5.220513 -18.442278 62.271482 4.391422 -11.401524 1.749507 19.348532 -3.460587 8.099497 3.137411 6.197188 5.476102 -12.744510 9.698026 5.360767 -4.359700 5.119900 0.581000 -1.759541 2.741390 -0.091502 -32.015355 7.547550 48.752305 5.430605 -23.964442 -1.646687 -0.711758 -0.526782 125.982067 8.587198 6.638611 0.939100 -7.125000 0.000000 0.000000 -15.965300 36.542500 3.428900 5.512687 -0.977758 2.427556 44.426797 24.342641 -54.203248 -158.790823 27.769881 -115.689023 -0.013844 -0.189458 -151.147659 -6.603207 40.329036 -4.218300 7.125000 0.000000 0.000000 14.744500 9.203500 17.454100 
0.016092 2.049569 0.114076 176.734738 38.095556 115.470109 0.209805 1.702470 -0.296287 17.895532 11.266263 -65.181030 14.944591 21.233037 75.771155 2.593342 0.860995 29.692403 1.346900 -7.347300 -20.748500 -2.087554 -1.011629 -0.952812 38.028475 30.110599 -66.310805 -21.122732 -19.366964 91.744531 0.821415 -15.761182 21.307046 -0.006400 0.515800 -1.417400 -4.578092 -18.449689 61.980310 4.504945 -10.914391 1.776498 19.458003 -3.219348 8.050896 2.930749 5.908831 5.366067 -12.895246 9.304094 5.391401 -4.412600 4.926500 0.574000 -1.493642 2.808694 0.221473 -36.088040 9.129577 37.589885 4.674327 -23.803148 -1.642191 -0.844901 -0.245046 135.331381 11.284627 6.684639 1.320000 -7.125000 0.000000 0.000000 -13.733200 36.917400 2.795400 5.486634 -1.059519 2.310035 45.256559 25.625183 -54.525002 -159.648577 26.364369 -116.104584 -0.032093 -0.108345 -151.904425 -1.907825 42.045956 -1.260100 7.125000 0.000000 0.000000 17.168800 10.350700 20.842800 
0.015682 2.055821 0.097779 176.782421 38.093492 115.654457 0.185574 1.686330 -0.307748 17.911984 10.967614 -65.310914 14.966043 21.212136 75.863508 2.645737 0.624061 29.936271 1.410200 -7.510900 -21.238000 -2.102318 -1.019624 -0.950778 37.943589 29.935227 -66.551101 -21.162487 -19.379914 91.837876 0.830516 -15.910688 21.402249 -0.005600 0.481700 -1.323600 -3.891293 -18.436566 61.628338 4.599909 -10.396438 1.814504 19.523039 -2.954256 8.031813 2.705268 5.582008 5.202198 -12.993920 8.860500 5.434602 -4.423400 4.704000 0.573400 -1.237500 2.846167 0.472207 -39.770116 10.226847 29.282803 4.260818 -23.688375 -1.619708 -0.940547 -0.043579 141.234320 13.628150 7.061666 1.744300 -7.125000 0.000000 0.000000 -11.876200 37.591000 2.203300 5.466330 -1.113331 2.214889 46.025229 26.870261 -54.475955 -160.508841 24.915270 -116.496925 -0.038776 -0.028056 -151.892407 2.460832 43.209779 1.669500 7.125000 0.000000 0.000000 19.296500 11.130700 23.911800 
0.014657 2.062791 0.082200 176.867569 38.122715 115.869629 0.160482 1.660906 -0.326873 17.981328 10.647880 -65.434328 14.983723 21.188727 75.944258 2.696339 0.384149 30.168077 1.483100 -7.694300 -21.789200 -2.119586 -1.034642 -0.950830 37.919410 29.714003 -66.786301 -21.194680 -19.394502 91.914296 0.830846 -16.021756 21.513954 -0.007400 0.553800 -1.521900 -2.992229 -18.431026 61.170350 4.667904 -9.825736 1.853781 19.415296 -2.621490 7.996084 2.598324 5.178091 4.996093 -13.047952 8.322509 5.524989 -4.426200 4.429500 0.592400 -1.000762 2.862392 0.672625 -42.893577 11.012279 23.515334 4.148560 -23.776710 -1.619317 -1.007181 0.083617 144.232215 15.542414 7.421419 2.138100 -7.125000 0.000000 0.000000 -10.360200 38.200700 1.757100 5.453375 -1.140045 2.141551 46.712912 27.986094 -54.042858 -161.369670 23.419293 -116.865807 -0.040267 0.049716 -151.059562 6.026444 44.105874 4.162800 7.125000 0.000000 0.000000 20.960800 11.819500 26.437300 
0.011787 2.068633 0.067748 176.949039 38.135329 116.059340 0.132635 1.631981 -0.350011 18.043936 10.280943 -65.509065 14.999421 21.161203 76.010386 2.741891 0.201792 30.396118 1.550200 -7.858600 -22.285400 -2.135772 -1.050565 -0.953764 37.890621 29.439492 -67.006562 -21.223629 -19.409623 91.980462 0.821712 -16.121063 21.672897 -0.009700 0.634400 -1.743300 -2.039202 -18.410286 60.687616 4.721050 -9.226858 1.898766 19.251001 -2.261932 7.988114 2.449339 4.734560 4.733056 -13.032889 7.731054 5.631027 -4.377400 4.124000 0.615200 -0.780167 2.872537 0.847282 -45.772580 11.648289 19.089914 4.222702 -24.043615 -1.647231 -1.057151 0.166294 145.613712 17.158748 7.677137 2.484200 -7.125000 0.000000 0.000000 -9.057900 38.671000 1.425900 5.446558 -1.154632 2.078741 47.299814 28.997582 -52.970369 -162.211765 21.892190 -117.205294 -0.034005 0.121597 -149.315951 8.657472 44.955957 6.085600 7.125000 0.000000 0.000000 22.150600 12.575300 28.379000 
0.008302 2.074475 0.054937 177.052972 38.125481 116.273808 0.101751 1.597974 -0.377975 18.094481 9.878420 -65.594588 15.013842 21.129458 76.065380 2.777459 0.059918 30.580707 1.650600 -8.096900 -23.008900 -2.153359 -1.070103 -0.957964 37.838945 29.126440 -67.252813 -21.250552 -19.426541 92.041328 0.813721 -16.218310 21.822615 -0.010500 0.660500 -1.815200 -0.979382 -18.379423 60.120194 4.760913 -8.595421 1.950427 18.993138 -1.867819 8.013265 2.359113 4.227805 4.409776 -12.987379 7.060715 5.753426 -4.318800 3.776000 0.646900 -0.568162 2.881204 1.003701 -48.489074 12.146927 15.522942 4.480809 -24.522225 -1.723483 -1.089349 0.217186 146.021526 18.421925 7.786780 2.742900 -7.125000 0.000000 0.000000 -8.011000 38.946900 1.203700 5.443506 -1.159295 2.033532 47.919949 29.804983 -51.261813 -163.058175 20.294538 -117.520974 -0.026102 0.189962 -146.755263 10.321898 45.938623 7.385000 7.125000 0.000000 0.000000 22.882800 13.517000 29.737700 
0.004407 2.080215 0.042945 177.147426 38.113214 116.453228 0.069620 1.562304 -0.404888 18.148692 9.457108 -65.630718 15.021300 21.094731 76.102982 2.817408 -0.104664 30.784482 1.732400 -8.285000 -23.583200 -2.168837 -1.091361 -0.960572 37.812746 28.779397 -67.451328 -21.274791 -19.442318 92.099396 0.797687 -16.277923 21.983922 -0.010900 0.673100 -1.849700 0.115833 -18.313009 59.581819 4.794812 -7.914699 1.989101 18.715601 -1.445797 8.009053 2.242948 3.687475 4.079094 -12.882747 6.343164 5.893244 -4.225500 3.402400 0.678500 -0.359452 2.882126 1.147361 -51.161715 12.591279 12.552074 4.900353 -25.202056 -1.850355 -1.107645 0.245917 145.762945 19.377708 7.793107 2.920700 -7.125000 0.000000 0.000000 -7.195800 39.075300 1.056800 5.441481 -1.156558 1.999598 48.547199 30.411626 -48.602406 -163.785454 18.772351 -117.773559 -0.005712 0.251270 -143.393607 11.762243 47.038122 8.581100 7.125000 0.000000 0.000000 23.503600 14.586100 30.981700 
-0.000307 2.084930 0.031773 177.255335 38.109549 116.642587 0.037671 1.526200 -0.432363 18.219586 9.018497 -65.677374 15.031005 21.058781 76.136547 2.851377 -0.195286 30.979891 1.786700 -8.406900 -23.956900 -2.183722 -1.113430 -0.962382 37.765438 28.442870 -67.662924 -21.298877 -19.458246 92.158721 0.789665 -16.338007 22.096710 -0.008200 0.585200 -1.608100 1.215255 -18.199984 59.068953 4.829247 -7.177603 2.024571 18.436828 -1.002024 8.004769 2.266436 3.117245 3.687600 -12.829707 5.592091 6.061609 -4.189100 3.009900 0.742300 -0.144050 2.874063 1.287767 -53.914195 13.014051 9.688272 5.505295 -26.110378 -2.043420 -1.114912 0.262289 145.362889 20.100687 7.825205 3.066200 -7.125000 0.000000 0.000000 -6.575500 39.196800 0.945000 5.454532 -1.150717 1.968037 49.135101 30.992385 -44.603988 -164.300073 17.439670 -117.944020 0.037755 0.298814 -138.797332 13.218929 48.359375 9.872600 7.125000 0.000000 0.000000 24.123000 15.872500 32.293700 
-0.004715 2.088824 0.021319 177.354695 38.072002 116.805927 0.004697 1.491971 -0.457586 18.269099 8.541744 -65.692024 15.040050 21.019262 76.161362 2.885076 -0.238622 31.192915 1.781000 -8.394100 -23.917700 -2.195149 -1.133734 -0.962457 37.713131 28.074524 -67.866237 -21.322471 -19.474896 92.224581 0.763008 -16.328617 22.254914 -0.010500 0.660300 -1.814700 2.242589 -18.002798 58.650445 4.864871 -6.360102 2.048001 18.183071 -0.535744 7.973975 2.493884 2.531261 3.175620 -12.808307 4.817904 6.289299 -4.222300 2.599700 0.868000 0.078619 2.848729 1.419364 -56.701934 13.431495 7.091586 6.314056 -27.263261 -2.310468 -1.111072 0.264719 144.602973 20.631433 7.936463 3.205000 -7.125000 0.000000 0.000000 -6.122400 39.372200 0.852800 5.485741 -1.147955 1.933232 49.742723 31.663312 -39.520405 -164.625584 16.318835 -118.040343 0.104489 0.329167 -133.397522 15.295461 49.707525 11.713100 7.125000 0.000000 0.000000 24.980500 17.202400 34.005700 
